<?xml version="1.0" encoding="UTF-8"?>
<svg width="22px" height="22px" viewBox="0 0 22 22" version="1.1" xmlns="http://www.w3.org/2000/svg" xmlns:xlink="http://www.w3.org/1999/xlink">
    <!-- Generator: Sketch 63 (92445) - https://sketch.com -->
    <title>gl</title>
    <desc>Created with Sketch.</desc>
    <g id="banner" stroke="none" stroke-width="1" fill="none" fill-rule="evenodd">
        <g id="gl">
            <path d="M0.737145283,15.2348972 C0.600371698,14.9194953 0.478126415,14.596486 0.371239623,14.266486 C0.464635849,14.5884673 0.587296226,14.9122991 0.737145283,15.2348972" id="Fill-1" fill="#FFCC16"></path>
            <path d="M17.5411604,5.02720561 C16.8821981,6.12391589 17.6793868,7.51423364 18.9676321,7.51526168 L20.8915943,7.51670093 L21.3517264,7.51711215 C20.8038019,5.86238318 19.8681792,4.38139252 18.6502925,3.18105607 L18.5610472,3.32950467 L17.5411604,5.02720561 Z" id="Fill-3" fill="#FFC200"></path>
            <path d="M12.8046642,3.80501308 C13.4339472,4.91858318 15.047834,4.92989159 15.692683,3.82516262 L16.656117,2.17557383 L16.8923057,1.77093832 C15.1611547,0.651405607 13.0937774,4.11214953e-05 10.8719849,4.11214953e-05 C10.799966,4.11214953e-05 10.7279472,0.00148037383 10.6559283,0.00271401869 L11.8306453,2.0812 L12.8046642,3.80501308 Z" id="Fill-5" fill="#FFC200"></path>
            <path d="M1.6968434,7.01723925 C2.06752264,7.2715757 2.51997547,7.42722056 3.02576792,7.4338 L7.62522075,7.4942486 L9.61954151,7.52056636 C10.9077868,7.53742617 11.7242774,6.15841682 11.0812962,5.05265981 L10.1207679,3.40142617 L8.31448491,0.296136449 C5.04686226,1.06510841 2.34231509,3.27374393 0.922484906,6.20899626 C0.983711321,6.29082804 1.0478434,6.37163178 1.11716415,6.45120187 C1.27573019,6.6693514 1.47061698,6.8618 1.6968434,7.01723925" id="Fill-7" fill="#FFC200"></path>
            <path d="M5.97202453,18.7113495 C6.24183585,18.684415 6.50770377,18.6132748 6.75634528,18.4971065 C7.16438302,18.3063028 7.52634528,17.9960411 7.7851566,17.5652935 L10.1379113,13.6494991 L11.1577981,11.9517981 C11.8165528,10.8548822 11.0195717,9.46477009 9.73111887,9.46353645 L7.8075717,9.4623028 L3.02319434,9.45818988 C2.49125094,9.45777944 2.01783585,9.62226542 1.63449623,9.89346168 C1.39291132,10.0641159 1.18702453,10.2771252 1.02576038,10.5189196 C0.112345283,11.634957 -0.0136358491,12.938714 0.371364151,14.2665271 C0.478043396,14.5963215 0.600288679,14.9195364 0.737062264,15.2349383 C0.847684906,15.4730318 0.97200566,15.7103028 1.10940189,15.9465458 C2.22974151,17.872471 3.88555283,19.1063215 5.97202453,18.7113495" id="Fill-9" fill="#FFC200"></path>
            <path d="M15.8941698,13.1740112 C15.2650943,12.0604411 13.651,12.0491327 13.0061509,13.1536561 L12.0429245,14.8034505 L9.64762264,18.9055252 C9.38133962,19.3615626 9.28835849,19.850086 9.33381132,20.3145533 C9.36224528,20.6071327 9.44567925,20.8900486 9.57643396,21.1495252 C9.66775472,21.3861794 9.77671698,21.6047402 9.90166038,21.8060299 C10.2214906,21.8335813 10.5450566,21.8485907 10.8721509,21.8485907 C14.0216792,21.8485907 16.8623774,20.5405159 18.8718491,18.443114 L16.8681887,14.8976187 L15.8941698,13.1740112 Z" id="Fill-11" fill="#FFC200"></path>
            <path d="M21.8054038,9.4941514 L21.0735925,9.48448785 L19.0794792,9.4583757 C17.791234,9.44151589 16.9745358,10.8203196 17.6177245,11.9262822 L18.5782528,13.5775159 L20.3166679,16.5662262 C21.3211962,14.9193103 21.8994226,12.9888617 21.8994226,10.924357 C21.8994226,10.4397402 21.8672528,9.96211402 21.8054038,9.4941514" id="Fill-13" fill="#FFC200"></path>
        </g>
    </g>
</svg>