<?xml version="1.0" encoding="UTF-8"?>
<svg width="20px" height="20px" viewBox="0 0 20 20" version="1.1" xmlns="http://www.w3.org/2000/svg" xmlns:xlink="http://www.w3.org/1999/xlink">
    <!-- Generator: Sketch 63 (92445) - https://sketch.com -->
    <title>Mail备份</title>
    <desc>Created with Sketch.</desc>
    <g id="Page-1" stroke="none" stroke-width="1" fill="none" fill-rule="evenodd">
        <g id="Mail备份">
            <circle id="Oval" fill="#0971BD" cx="10" cy="10" r="10"></circle>
            <path d="M10.1393333,9.43876 C9.35813333,9.43876 5.33333333,7.1564 5.33333333,7.1564 L5.33333333,6.8 C5.33333333,6.3584 5.69173333,6 6.13413333,6 L14.1445333,6 C14.5873333,6 14.9457333,6.3584 14.9457333,6.8 L14.9393333,7.2 C14.9393333,7.2 10.9581333,9.43876 10.1393333,9.43876 Z M10.1393333,10.53876 C10.9957333,10.53876 14.9393333,8.4 14.9393333,8.4 L14.9457333,13.2 C14.9457333,13.6416 14.5873333,14 14.1445333,14 L6.13413333,14 C5.69213333,14 5.33333333,13.6416 5.33333333,13.2 L5.33973333,8.4 C5.33933333,8.4 9.35813333,10.53876 10.1393333,10.53876 Z" id="Shape" fill="#FFFFFF"></path>
        </g>
    </g>
</svg>