<?xml version="1.0" encoding="UTF-8"?>
<svg width="20px" height="20px" viewBox="0 0 20 20" version="1.1" xmlns="http://www.w3.org/2000/svg" xmlns:xlink="http://www.w3.org/1999/xlink">
    <!-- Generator: Sketch 63 (92445) - https://sketch.com -->
    <title>Viber备份</title>
    <desc>Created with Sketch.</desc>
    <g id="Page-1" stroke="none" stroke-width="1" fill="none" fill-rule="evenodd">
        <g id="Viber备份">
            <circle id="Viber" fill="#7F4DA0" transform="translate(10.000000, 10.000000) scale(1, -1) translate(-10.000000, -10.000000) " cx="10" cy="10" r="10"></circle>
            <path d="M11.1563121,9.42103501 C11.5457019,9.3381386 11.8441917,9.19012107 12.0991626,8.95130821 C12.4272714,8.64147111 12.6071715,8.26647261 12.6862142,7.72766974 C12.7395806,7.37636429 12.7178394,7.23821947 12.5933082,7.12374574 C12.4766952,7.01717458 12.261264,7.0132233 12.1307877,7.11387669 C12.0359122,7.18493389 12.0062565,7.25992774 11.9845154,7.46319734 C11.9588353,7.73359117 11.911381,7.92305508 11.8303651,8.09871696 C11.6564065,8.47172701 11.3500388,8.66514586 10.8321788,8.7283005 C10.5890248,8.75791133 10.5158904,8.78553736 10.436844,8.87828452 C10.2925411,9.04999512 10.3478769,9.32827321 10.5475156,9.43090773 C10.6226561,9.46840282 10.6542813,9.47235411 10.8202887,9.46248505 C10.9230788,9.45656362 11.0752962,9.43880664 11.1563121,9.42103501 L11.1563121,9.42103501 Z" id="Path" fill="#FFFFFF" transform="translate(11.534652, 8.254060) rotate(-85.000000) translate(-11.534652, -8.254060) "></path>
            <path d="M10.7352972,9.85339442 C11.9351246,9.67775451 12.8641118,9.12118002 13.4729083,8.21726967 C13.8148768,7.70807763 14.0283384,7.11007141 14.1014765,6.46865233 C14.1271566,6.2337871 14.1271566,5.80550667 14.099507,5.73444947 C14.0737902,5.66736186 13.9907719,5.57656288 13.9196033,5.53908243 C13.8425263,5.49960255 13.6784921,5.50353552 13.5875555,5.55091798 C13.435338,5.62787831 13.3898899,5.75025461 13.3898899,6.08181828 C13.3898899,6.5929768 13.2574441,7.13177967 13.0281864,7.55019104 C12.7672668,8.02780576 12.3877684,8.42252407 11.9252443,8.69686919 C11.52794,8.93370091 10.9408846,9.10934448 10.4052225,9.15275734 C10.2114959,9.16856247 10.1047632,9.20802771 10.0316288,9.29289061 C9.91898777,9.42118468 9.90709762,9.59486176 10.0019731,9.73892435 C10.1047595,9.89879208 10.2628854,9.92445163 10.7352972,9.85339442 L10.7352972,9.85339442 Z" id="Path" fill="#FFFFFF" transform="translate(12.029350, 7.701511) rotate(-85.000000) translate(-12.029350, -7.701511) "></path>
            <path d="M6.08038936,16.2293757 C6.14958478,16.2057009 6.25631745,16.1504488 6.31759833,16.110969 C6.69312846,15.8622834 7.73876897,14.5261633 8.08073747,13.8590664 C8.27640058,13.4781684 8.34162039,13.195939 8.28037619,12.9867333 C8.21708916,12.7617408 8.11236264,12.6433158 7.64389345,12.2663508 C7.45611188,12.1144003 7.28018379,11.9584802 7.25253423,11.9170302 C7.18136934,11.8143956 7.1240274,11.6130925 7.1240274,11.4709928 C7.12603354,11.1413956 7.3394952,10.5433894 7.62018282,10.0835316 C7.83758342,9.72630839 8.22697318,9.26845375 8.612424,8.91713 C9.0650641,8.5026516 9.46433786,8.22045885 9.91500849,7.99741451 C10.4941493,7.70928201 10.8479749,7.63625832 11.1069214,7.75663151 C11.1721412,7.78624234 11.2413036,7.82572223 11.2630778,7.8434609 C11.2828128,7.86123618 11.4350303,8.04676712 11.6010707,8.25199955 C11.921265,8.65463873 11.9943994,8.71975986 12.2138061,8.7947537 C12.4925243,8.88948565 12.7771508,8.86384442 13.0637468,8.71779337 C13.2811841,8.60528613 13.7555654,8.31122121 14.0619331,8.09807889 C14.4651458,7.81584951 15.3269473,7.11323862 15.4436007,6.97309069 C15.6491478,6.72047215 15.6847486,6.39682935 15.5463577,6.03956951 C15.4000854,5.66264114 14.8308286,4.95606431 14.4335243,4.65409316 C14.0737902,4.38173284 13.8188194,4.27716479 13.4827923,4.26135965 C13.2060803,4.24755396 13.0914331,4.27122871 12.7376074,4.41727975 C9.96245909,5.56000662 7.74667985,7.26518912 5.98747964,9.60789802 C5.06837649,10.8315365 4.36864341,12.100569 3.89028654,13.4169729 C3.61160507,14.1847013 3.59777845,14.5182497 3.8270362,14.9109979 C3.92588733,15.0767724 4.34690225,15.4872959 4.65326997,15.716225 C5.16325201,16.0951711 5.39845484,16.2353044 5.58623641,16.274766 C5.71471023,16.302403 5.93805591,16.2806948 6.08038936,16.2293757 L6.08038936,16.2293757 Z" id="Path" fill="#FFFFFF" transform="translate(9.648128, 10.272403) rotate(-90.000000) translate(-9.648128, -10.272403) "></path>
            <path d="M10.5989088,10.426952 C11.2788702,10.3420891 11.828359,10.1782848 12.4312434,9.88421617 C13.0242071,9.59408056 13.4037092,9.31975375 13.9057767,8.82043809 C14.3762153,8.34874115 14.6371349,7.99150328 14.913847,7.43692823 C15.2992978,6.66326013 15.5187045,5.74356295 15.5562381,4.73110031 C15.5700977,4.38573095 15.5602137,4.30873766 15.4811306,4.21007273 C15.3309193,4.01860571 15.0008043,4.05021965 14.8881632,4.2653248 C14.8525624,4.336382 14.8426784,4.39753719 14.8308212,4.67386345 C14.8110496,5.09819259 14.7814305,5.37251939 14.7221191,5.70015009 C14.4888858,6.98495841 13.8721747,8.01124505 12.8878151,8.7474144 C12.0675301,9.36317028 11.2195551,9.66317494 10.1087278,9.72829606 C9.73316467,9.75000433 9.66794119,9.76380636 9.58295335,9.82894579 C9.42479081,9.95328858 9.41691294,10.2453724 9.56909373,10.3815507 C9.66199978,10.4664319 9.72721959,10.4782674 10.0494201,10.4683984 C10.2174336,10.4624806 10.4644936,10.4427425 10.5989088,10.426952 L10.5989088,10.426952 Z" id="Path" fill="#FFFFFF" transform="translate(12.510494, 7.277411) rotate(-85.000000) translate(-12.510494, -7.277411) "></path>
        </g>
    </g>
</svg>