<?xml version="1.0" encoding="UTF-8"?>
<svg width="20px" height="20px" viewBox="0 0 20 20" version="1.1" xmlns="http://www.w3.org/2000/svg" xmlns:xlink="http://www.w3.org/1999/xlink">
    <!-- Generator: Sketch 63 (92445) - https://sketch.com -->
    <title>Wechat备份</title>
    <desc>Created with Sketch.</desc>
    <g id="Page-1" stroke="none" stroke-width="1" fill="none" fill-rule="evenodd">
        <g id="Wechat备份">
            <path d="M0,10 C0,4.47715223 4.47715223,0 10,0 C15.5228478,0 20,4.47715223 20,10 C20,15.5228478 15.5228478,20 10,20 C4.47715223,20 0,15.5228478 0,10 Z" id="back" fill="#45B035"></path>
            <g id="Group-5" transform="translate(3.333333, 4.666667)" fill="#FFFFFF">
                <path d="M3.10466667,3.25833333 C2.73533333,3.25833333 2.436,2.968 2.436,2.61066667 C2.436,2.253 2.73533333,1.96366667 3.10466667,1.96366667 C3.474,1.96366667 3.774,2.253 3.774,2.61066667 C3.774,2.968 3.474,3.25833333 3.10466667,3.25833333 M6.41866667,1.96366667 C6.788,1.96366667 7.087,2.253 7.087,2.61066667 C7.087,2.968 6.788,3.25833333 6.41866667,3.25833333 C6.049,3.25833333 5.75033333,2.968 5.75033333,2.61066667 C5.75033333,2.253 6.049,1.96366667 6.41866667,1.96366667 M9.26766667,3.369 C9.335,3.369 9.40166667,3.36966667 9.468,3.37333333 C9.11733333,1.46233333 7.14366667,0 4.76166667,0 C2.13166667,0 0,1.783 0,3.98233333 C0,5.272 0.732666667,6.41833333 1.869,7.146 C1.88366667,7.15533333 1.91266667,7.17366667 1.91266667,7.17366667 L1.45266667,8.61466667 L3.174,7.738 C3.174,7.738 3.228,7.75333333 3.255,7.76133333 C3.728,7.893 4.23533333,7.96433333 4.76166667,7.96433333 C4.869,7.96433333 4.97566667,7.96 5.08166667,7.95466667 C4.984,7.65166667 4.93033333,7.33333333 4.93033333,7.00466667 C4.93033333,4.99633333 6.873,3.369 9.26766667,3.369" id="Fill-1"></path>
                <path d="M7.3387,5.86903333 C7.3387,5.5677 7.59203333,5.3227 7.9037,5.3227 C8.21603333,5.3227 8.46903333,5.5677 8.46903333,5.86903333 C8.46903333,6.1717 8.21603333,6.41703333 7.9037,6.41703333 C7.59203333,6.41703333 7.3387,6.1717 7.3387,5.86903333 M10.1383667,5.86903333 C10.1383667,5.5677 10.3910333,5.3227 10.7030333,5.3227 C11.0153667,5.3227 11.2680333,5.5677 11.2680333,5.86903333 C11.2680333,6.1717 11.0153667,6.41703333 10.7030333,6.41703333 C10.3910333,6.41703333 10.1383667,6.1717 10.1383667,5.86903333 M5.28036667,7.02803333 C5.28036667,8.88636667 7.08203333,10.3927 9.30403333,10.3927 C9.74836667,10.3927 10.1770333,10.3320333 10.5763667,10.2203667 C10.5993667,10.2143667 10.6450333,10.2007 10.6450333,10.2007 L12.0987,10.9420333 L11.7100333,9.72403333 C11.7100333,9.72403333 11.7347,9.7087 11.7470333,9.70103333 C12.7067,9.08636667 13.3260333,8.11803333 13.3260333,7.02803333 C13.3260333,5.17036667 11.5250333,3.66403333 9.30403333,3.66403333 C7.08203333,3.66403333 5.28036667,5.17036667 5.28036667,7.02803333" id="Fill-2"></path>
            </g>
        </g>
    </g>
</svg>